<svg viewBox="0 0 100 100" xmlns="http://www.w3.org/2000/svg">
  <defs>
    <radialGradient id="impactGrad" cx="50%" cy="50%" r="50%" fx="50%" fy="50%">
      <stop offset="0%" style="stop-color:#ffffff;stop-opacity:1" />
      <stop offset="100%" style="stop-color:#f0f0f0;stop-opacity:0" />
    </radialGradient>
  </defs>
  
  <!-- Comic Impact Shape -->
  <path d="M50 50 L50 15 M50 50 L75 25 M50 50 L85 50 M50 50 L75 75 M50 50 L50 85 M50 50 L25 75 M50 50 L15 50 M50 50 L25 25" 
        stroke="#fff" stroke-width="0" fill="none" />
        
  <!-- Starburst Polygon -->
  <polygon points="50,10 60,40 90,50 60,60 50,90 40,60 10,50 40,40" fill="#fff" stroke="#000" stroke-width="2"/>
  <polygon points="50,20 55,45 80,50 55,55 50,80 45,55 20,50 45,45" fill="#ffdd00" opacity="0.6"/>
  
  <!-- Motion Lines -->
  <circle cx="50" cy="50" r="40" stroke="#fff" stroke-width="2" stroke-dasharray="10,10" fill="none" opacity="0.5"/>
</svg>
